<svg width="977" height="608" viewBox="0 0 977 608" fill="none" xmlns="http://www.w3.org/2000/svg">
<g filter="url(#filter0_f_746_4300)">
<ellipse rx="129.696" ry="104.771" transform="matrix(-0.965926 -0.258819 -0.258819 0.965926 289.394 231.769)" fill="#232DE3"/>
</g>
<g filter="url(#filter1_f_746_4300)">
<ellipse rx="85" ry="68.5" transform="matrix(-1 0 0 1 303 236.5)" fill="#1BB8FF"/>
</g>
<g filter="url(#filter2_f_746_4300)">
<ellipse rx="80.5" ry="27.5" transform="matrix(-1 0 0 1 310.5 220.5)" fill="#EBF7FD"/>
</g>
<g clip-path="url(#clip0_746_4300)">
<rect width="450.749" height="450.749" rx="225.374" transform="matrix(-0.984567 -0.175008 -0.175008 0.984567 740.918 163.885)" fill="#0A0718"/>
<g filter="url(#filter3_f_746_4300)">
<circle r="175.786" transform="matrix(-0.984567 -0.175008 -0.175008 0.984567 584.114 286.872)" fill="#232DE3"/>
</g>
<g filter="url(#filter4_f_746_4300)">
<ellipse rx="246.875" ry="231.492" transform="matrix(-0.984567 -0.175008 -0.175008 0.984567 409.305 298.735)" fill="#232DE3"/>
</g>
<g filter="url(#filter5_f_746_4300)">
<circle r="206.166" transform="matrix(-0.984567 -0.175008 -0.175008 0.984567 312.052 195.065)" fill="#1BB8FF"/>
</g>
<g filter="url(#filter6_f_746_4300)">
<ellipse rx="110.483" ry="109.959" transform="matrix(-0.984567 -0.175008 -0.175008 0.984567 336.096 228.597)" fill="#EBF7FD"/>
</g>
<g filter="url(#filter7_f_746_4300)">
<path d="M-25.9576 624.674L59.5611 467.595C547.413 893.006 948.719 182.274 423.367 -61.1513L493.448 -220.432L979.839 7.19381L1195.68 669.541L562.077 899.868L-25.9576 624.674Z" fill="#0A0718"/>
</g>
<g filter="url(#filter8_f_746_4300)">
<path d="M864.118 282.112L753.754 349.709C605.821 -87.8603 97.5444 212.911 335.097 550.383L233.519 624.812L14.4048 310.963L121.762 -177.977L599.215 -97.3223L864.118 282.112Z" fill="#C9EBFF"/>
</g>
<g opacity="0.15" filter="url(#filter9_f_746_4300)">
<path d="M493.775 345.52C493.775 353.164 487.557 359.359 479.888 359.359C472.218 359.359 466.001 353.164 466.001 345.52C466.001 337.876 472.218 331.681 479.888 331.681C487.557 331.681 493.775 337.876 493.775 345.52Z" fill="white"/>
<path fill-rule="evenodd" clip-rule="evenodd" d="M431.992 345.94C427.473 342.485 423.308 339.066 419.55 335.73C418.486 336.355 417.246 336.713 415.923 336.713C411.972 336.713 408.769 333.522 408.769 329.584C408.769 328.337 409.09 327.164 409.654 326.145C405.319 321.49 401.95 317.072 399.79 313.071C397.113 308.109 395.902 303.028 398.252 298.97C400.603 294.914 405.625 293.416 411.275 293.248C417.088 293.072 424.472 294.258 432.858 296.552C439.851 298.465 447.639 301.176 455.94 304.605C457.111 295.726 458.649 287.648 460.484 280.657C462.683 272.272 465.345 265.307 468.403 260.378C471.375 255.586 475.187 252 479.888 252C484.588 252 488.4 255.586 491.372 260.378C494.43 265.307 497.092 272.272 499.292 280.657C501.126 287.648 502.665 295.726 503.836 304.605C509.456 302.284 514.841 300.29 519.904 298.652C520.274 295.059 523.319 292.26 527.02 292.26C529.357 292.26 531.432 293.377 532.738 295.104C538.736 293.77 544.074 293.115 548.501 293.248C554.15 293.416 559.173 294.914 561.523 298.97C563.873 303.028 562.663 308.109 559.985 313.071C557.23 318.174 552.508 323.955 546.322 330.046C541.163 335.124 534.913 340.489 527.783 345.94C534.913 351.39 541.163 356.756 546.322 361.835C552.508 367.925 557.23 373.705 559.985 378.81C562.663 383.77 563.873 388.853 561.523 392.909C559.173 396.967 554.15 398.463 548.501 398.633C542.688 398.807 535.304 397.621 526.918 395.327C519.925 393.415 512.136 390.704 503.836 387.276C502.664 396.155 501.126 404.231 499.292 411.222C497.092 419.607 494.43 426.572 491.372 431.501C488.4 436.293 484.588 439.879 479.888 439.879C475.187 439.879 471.375 436.293 468.403 431.501C466.211 427.968 464.223 423.389 462.462 417.99C462.106 418.044 461.742 418.072 461.372 418.072C457.42 418.072 454.218 414.88 454.218 410.942C454.218 407.895 456.136 405.294 458.835 404.273C457.713 399.043 456.741 393.347 455.94 387.276C447.639 390.704 439.851 393.415 432.858 395.327C424.472 397.621 417.088 398.807 411.275 398.633C405.625 398.463 400.603 396.967 398.252 392.909C395.902 388.853 397.113 383.77 399.79 378.81C402.545 373.705 407.268 367.925 413.454 361.835C418.612 356.756 424.862 351.39 431.992 345.94ZM460.159 311.887C459.624 316.921 459.203 322.184 458.91 327.631C461.433 326.095 464.009 324.568 466.632 323.059C469.255 321.55 471.868 320.091 474.466 318.682C469.586 316.212 464.801 313.941 460.159 311.887ZM455.308 309.795C454.561 316.462 454.015 323.524 453.698 330.872C447.472 334.818 441.608 338.82 436.186 342.799C431.247 339.067 426.736 335.38 422.722 331.807C422.952 331.107 423.077 330.36 423.077 329.584C423.077 325.646 419.874 322.455 415.923 322.455C415.072 322.455 414.255 322.602 413.498 322.874C409.28 318.361 406.156 314.241 404.238 310.686C401.745 306.068 401.664 303.147 402.626 301.486C403.587 299.827 406.166 298.436 411.427 298.277C416.525 298.124 423.36 299.173 431.521 301.406C438.655 303.357 446.693 306.181 455.308 309.795ZM466.94 415.419C467.932 414.196 468.525 412.638 468.525 410.942C468.525 407.933 466.656 405.361 464.011 404.314C462.733 398.54 461.639 392.131 460.767 385.226C466.935 382.536 473.345 379.476 479.888 376.077C486.431 379.476 492.841 382.536 499.009 385.226C497.842 394.467 496.277 402.819 494.406 409.95C492.265 418.109 489.759 424.533 487.077 428.856C484.309 433.317 481.811 434.847 479.888 434.847C477.964 434.847 475.466 433.317 472.699 428.856C470.648 425.55 468.7 421.017 466.94 415.419ZM521.193 303.527C515.956 305.231 510.346 307.329 504.468 309.795C505.215 316.462 505.76 323.526 506.078 330.872C512.304 334.82 518.168 338.82 523.59 342.799C531.037 337.172 537.511 331.646 542.773 326.465C548.793 320.538 553.122 315.163 555.538 310.686C558.031 306.068 558.111 303.147 557.15 301.486C556.188 299.827 553.609 298.436 548.349 298.277C544.533 298.162 539.743 298.721 534.152 299.946C533.867 303.624 530.783 306.518 527.02 306.518C524.617 306.518 522.49 305.339 521.193 303.527ZM460.767 306.654C466.935 309.344 473.344 312.404 479.888 315.804C486.431 312.404 492.841 309.344 499.009 306.654C497.842 297.412 496.277 289.062 494.406 281.929C492.265 273.77 489.759 267.346 487.077 263.023C484.309 258.563 481.811 257.032 479.888 257.032C477.964 257.032 475.466 258.563 472.699 263.023C470.017 267.346 467.51 273.77 465.369 281.929C463.498 289.062 461.934 297.413 460.767 306.654ZM479.888 321.49C476.345 323.365 472.762 325.343 469.157 327.417C465.552 329.491 462.042 331.594 458.64 333.714C458.499 337.709 458.426 341.792 458.426 345.94C458.426 350.087 458.499 354.17 458.64 358.165C462.042 360.285 465.552 362.388 469.157 364.462C472.762 366.536 476.344 368.515 479.887 370.391C483.431 368.515 487.014 366.536 490.619 364.462C494.224 362.388 497.733 360.285 501.136 358.165C501.277 354.17 501.35 350.087 501.35 345.94C501.35 341.792 501.277 337.709 501.136 333.714C497.734 331.594 494.224 329.491 490.619 327.417C487.014 325.343 483.431 323.365 479.888 321.49ZM500.865 327.631C498.342 326.095 495.767 324.568 493.144 323.059C490.521 321.55 487.907 320.091 485.309 318.682C490.189 316.212 494.974 313.941 499.617 311.887C500.152 316.921 500.572 322.184 500.865 327.631ZM506.287 336.99C506.361 339.936 506.4 342.922 506.4 345.94C506.4 348.959 506.361 351.943 506.287 354.891C510.874 351.914 515.239 348.918 519.346 345.94C515.239 342.96 510.874 339.967 506.287 336.99ZM523.589 349.082C518.168 353.061 512.303 357.061 506.078 361.009C505.76 368.356 505.215 375.418 504.468 382.086C513.082 385.7 521.121 388.524 528.254 390.475C536.416 392.708 543.251 393.755 548.349 393.602C553.609 393.445 556.188 392.054 557.15 390.393C558.112 388.734 558.031 385.813 555.538 381.193C553.122 376.718 548.793 371.343 542.773 365.414C537.51 360.234 531.036 354.71 523.589 349.082ZM499.616 379.994C500.152 374.96 500.572 369.696 500.865 364.249C498.342 365.788 495.767 367.313 493.144 368.822C490.521 370.33 487.908 371.79 485.31 373.199C490.19 375.669 494.974 377.94 499.616 379.994ZM474.465 373.199C471.868 371.79 469.255 370.33 466.632 368.822C464.009 367.313 461.433 365.788 458.91 364.249C459.203 369.696 459.624 374.96 460.159 379.994C464.801 377.94 469.586 375.669 474.465 373.199ZM453.489 354.891C453.414 351.943 453.376 348.959 453.376 345.94C453.376 342.922 453.414 339.936 453.489 336.99C448.902 339.967 444.537 342.963 440.43 345.941C444.537 348.919 448.902 351.914 453.489 354.891ZM436.187 349.082C441.608 353.061 447.472 357.061 453.698 361.009C454.015 368.356 454.561 375.418 455.308 382.086C446.693 385.7 438.655 388.524 431.521 390.475C423.36 392.708 416.525 393.755 411.427 393.602C406.166 393.445 403.587 392.054 402.626 390.393C401.664 388.734 401.745 385.813 404.238 381.193C406.654 376.718 410.982 371.343 417.003 365.414C422.265 360.234 428.739 354.709 436.187 349.082Z" fill="white"/>
</g>
<g opacity="0.15" filter="url(#filter10_f_746_4300)">
<path d="M493.775 345.52C493.775 353.164 487.557 359.359 479.888 359.359C472.218 359.359 466.001 353.164 466.001 345.52C466.001 337.876 472.218 331.681 479.888 331.681C487.557 331.681 493.775 337.876 493.775 345.52Z" fill="white"/>
<path fill-rule="evenodd" clip-rule="evenodd" d="M431.992 345.94C427.473 342.485 423.308 339.066 419.55 335.73C418.486 336.355 417.246 336.713 415.923 336.713C411.972 336.713 408.769 333.522 408.769 329.584C408.769 328.337 409.09 327.164 409.654 326.145C405.319 321.49 401.95 317.072 399.79 313.071C397.113 308.109 395.902 303.028 398.252 298.97C400.603 294.914 405.625 293.416 411.275 293.248C417.088 293.072 424.472 294.258 432.858 296.552C439.851 298.465 447.639 301.176 455.94 304.605C457.111 295.726 458.649 287.648 460.484 280.657C462.683 272.272 465.345 265.307 468.403 260.378C471.375 255.586 475.187 252 479.888 252C484.588 252 488.4 255.586 491.372 260.378C494.43 265.307 497.092 272.272 499.292 280.657C501.126 287.648 502.665 295.726 503.836 304.605C509.456 302.284 514.841 300.29 519.904 298.652C520.274 295.059 523.319 292.26 527.02 292.26C529.357 292.26 531.432 293.377 532.738 295.104C538.736 293.77 544.074 293.115 548.501 293.248C554.15 293.416 559.173 294.914 561.523 298.97C563.873 303.028 562.663 308.109 559.985 313.071C557.23 318.174 552.508 323.955 546.322 330.046C541.163 335.124 534.913 340.489 527.783 345.94C534.913 351.39 541.163 356.756 546.322 361.835C552.508 367.925 557.23 373.705 559.985 378.81C562.663 383.77 563.873 388.853 561.523 392.909C559.173 396.967 554.15 398.463 548.501 398.633C542.688 398.807 535.304 397.621 526.918 395.327C519.925 393.415 512.136 390.704 503.836 387.276C502.664 396.155 501.126 404.231 499.292 411.222C497.092 419.607 494.43 426.572 491.372 431.501C488.4 436.293 484.588 439.879 479.888 439.879C475.187 439.879 471.375 436.293 468.403 431.501C466.211 427.968 464.223 423.389 462.462 417.99C462.106 418.044 461.742 418.072 461.372 418.072C457.42 418.072 454.218 414.88 454.218 410.942C454.218 407.895 456.136 405.294 458.835 404.273C457.713 399.043 456.741 393.347 455.94 387.276C447.639 390.704 439.851 393.415 432.858 395.327C424.472 397.621 417.088 398.807 411.275 398.633C405.625 398.463 400.603 396.967 398.252 392.909C395.902 388.853 397.113 383.77 399.79 378.81C402.545 373.705 407.268 367.925 413.454 361.835C418.612 356.756 424.862 351.39 431.992 345.94ZM460.159 311.887C459.624 316.921 459.203 322.184 458.91 327.631C461.433 326.095 464.009 324.568 466.632 323.059C469.255 321.55 471.868 320.091 474.466 318.682C469.586 316.212 464.801 313.941 460.159 311.887ZM455.308 309.795C454.561 316.462 454.015 323.524 453.698 330.872C447.472 334.818 441.608 338.82 436.186 342.799C431.247 339.067 426.736 335.38 422.722 331.807C422.952 331.107 423.077 330.36 423.077 329.584C423.077 325.646 419.874 322.455 415.923 322.455C415.072 322.455 414.255 322.602 413.498 322.874C409.28 318.361 406.156 314.241 404.238 310.686C401.745 306.068 401.664 303.147 402.626 301.486C403.587 299.827 406.166 298.436 411.427 298.277C416.525 298.124 423.36 299.173 431.521 301.406C438.655 303.357 446.693 306.181 455.308 309.795ZM466.94 415.419C467.932 414.196 468.525 412.638 468.525 410.942C468.525 407.933 466.656 405.361 464.011 404.314C462.733 398.54 461.639 392.131 460.767 385.226C466.935 382.536 473.345 379.476 479.888 376.077C486.431 379.476 492.841 382.536 499.009 385.226C497.842 394.467 496.277 402.819 494.406 409.95C492.265 418.109 489.759 424.533 487.077 428.856C484.309 433.317 481.811 434.847 479.888 434.847C477.964 434.847 475.466 433.317 472.699 428.856C470.648 425.55 468.7 421.017 466.94 415.419ZM521.193 303.527C515.956 305.231 510.346 307.329 504.468 309.795C505.215 316.462 505.76 323.526 506.078 330.872C512.304 334.82 518.168 338.82 523.59 342.799C531.037 337.172 537.511 331.646 542.773 326.465C548.793 320.538 553.122 315.163 555.538 310.686C558.031 306.068 558.111 303.147 557.15 301.486C556.188 299.827 553.609 298.436 548.349 298.277C544.533 298.162 539.743 298.721 534.152 299.946C533.867 303.624 530.783 306.518 527.02 306.518C524.617 306.518 522.49 305.339 521.193 303.527ZM460.767 306.654C466.935 309.344 473.344 312.404 479.888 315.804C486.431 312.404 492.841 309.344 499.009 306.654C497.842 297.412 496.277 289.062 494.406 281.929C492.265 273.77 489.759 267.346 487.077 263.023C484.309 258.563 481.811 257.032 479.888 257.032C477.964 257.032 475.466 258.563 472.699 263.023C470.017 267.346 467.51 273.77 465.369 281.929C463.498 289.062 461.934 297.413 460.767 306.654ZM479.888 321.49C476.345 323.365 472.762 325.343 469.157 327.417C465.552 329.491 462.042 331.594 458.64 333.714C458.499 337.709 458.426 341.792 458.426 345.94C458.426 350.087 458.499 354.17 458.64 358.165C462.042 360.285 465.552 362.388 469.157 364.462C472.762 366.536 476.344 368.515 479.887 370.391C483.431 368.515 487.014 366.536 490.619 364.462C494.224 362.388 497.733 360.285 501.136 358.165C501.277 354.17 501.35 350.087 501.35 345.94C501.35 341.792 501.277 337.709 501.136 333.714C497.734 331.594 494.224 329.491 490.619 327.417C487.014 325.343 483.431 323.365 479.888 321.49ZM500.865 327.631C498.342 326.095 495.767 324.568 493.144 323.059C490.521 321.55 487.907 320.091 485.309 318.682C490.189 316.212 494.974 313.941 499.617 311.887C500.152 316.921 500.572 322.184 500.865 327.631ZM506.287 336.99C506.361 339.936 506.4 342.922 506.4 345.94C506.4 348.959 506.361 351.943 506.287 354.891C510.874 351.914 515.239 348.918 519.346 345.94C515.239 342.96 510.874 339.967 506.287 336.99ZM523.589 349.082C518.168 353.061 512.303 357.061 506.078 361.009C505.76 368.356 505.215 375.418 504.468 382.086C513.082 385.7 521.121 388.524 528.254 390.475C536.416 392.708 543.251 393.755 548.349 393.602C553.609 393.445 556.188 392.054 557.15 390.393C558.112 388.734 558.031 385.813 555.538 381.193C553.122 376.718 548.793 371.343 542.773 365.414C537.51 360.234 531.036 354.71 523.589 349.082ZM499.616 379.994C500.152 374.96 500.572 369.696 500.865 364.249C498.342 365.788 495.767 367.313 493.144 368.822C490.521 370.33 487.908 371.79 485.31 373.199C490.19 375.669 494.974 377.94 499.616 379.994ZM474.465 373.199C471.868 371.79 469.255 370.33 466.632 368.822C464.009 367.313 461.433 365.788 458.91 364.249C459.203 369.696 459.624 374.96 460.159 379.994C464.801 377.94 469.586 375.669 474.465 373.199ZM453.489 354.891C453.414 351.943 453.376 348.959 453.376 345.94C453.376 342.922 453.414 339.936 453.489 336.99C448.902 339.967 444.537 342.963 440.43 345.941C444.537 348.919 448.902 351.914 453.489 354.891ZM436.187 349.082C441.608 353.061 447.472 357.061 453.698 361.009C454.015 368.356 454.561 375.418 455.308 382.086C446.693 385.7 438.655 388.524 431.521 390.475C423.36 392.708 416.525 393.755 411.427 393.602C406.166 393.445 403.587 392.054 402.626 390.393C401.664 388.734 401.745 385.813 404.238 381.193C406.654 376.718 410.982 371.343 417.003 365.414C422.265 360.234 428.739 354.709 436.187 349.082Z" fill="white"/>
</g>
<g opacity="0.75" filter="url(#filter11_f_746_4300)">
<path d="M493.776 345.52C493.776 353.164 487.558 359.359 479.889 359.359C472.219 359.359 466.002 353.164 466.002 345.52C466.002 337.876 472.219 331.681 479.889 331.681C487.558 331.681 493.776 337.876 493.776 345.52Z" fill="white"/>
<path fill-rule="evenodd" clip-rule="evenodd" d="M431.993 345.94C427.474 342.485 423.309 339.066 419.551 335.73C418.487 336.355 417.247 336.713 415.924 336.713C411.973 336.713 408.77 333.522 408.77 329.584C408.77 328.337 409.091 327.164 409.655 326.145C405.32 321.49 401.951 317.072 399.791 313.071C397.114 308.109 395.903 303.028 398.253 298.97C400.604 294.914 405.626 293.416 411.276 293.248C417.089 293.072 424.473 294.258 432.859 296.552C439.852 298.465 447.64 301.176 455.941 304.605C457.112 295.726 458.65 287.648 460.485 280.657C462.684 272.272 465.346 265.307 468.404 260.378C471.376 255.586 475.188 252 479.889 252C484.589 252 488.401 255.586 491.373 260.378C494.431 265.307 497.093 272.272 499.293 280.657C501.127 287.648 502.666 295.726 503.837 304.605C509.457 302.284 514.842 300.29 519.905 298.652C520.275 295.059 523.319 292.26 527.021 292.26C529.358 292.26 531.433 293.377 532.739 295.104C538.737 293.77 544.075 293.115 548.501 293.248C554.151 293.416 559.174 294.914 561.524 298.97C563.874 303.028 562.664 308.109 559.986 313.071C557.231 318.174 552.509 323.955 546.323 330.046C541.164 335.124 534.914 340.489 527.784 345.94C534.914 351.39 541.164 356.756 546.323 361.835C552.509 367.925 557.231 373.705 559.986 378.81C562.664 383.77 563.874 388.853 561.524 392.909C559.174 396.967 554.151 398.463 548.502 398.633C542.689 398.807 535.305 397.621 526.919 395.327C519.926 393.415 512.137 390.704 503.836 387.276C502.665 396.155 501.127 404.231 499.293 411.222C497.093 419.607 494.431 426.572 491.373 431.501C488.401 436.293 484.589 439.879 479.889 439.879C475.188 439.879 471.376 436.293 468.404 431.501C466.212 427.968 464.224 423.389 462.463 417.99C462.107 418.044 461.743 418.072 461.372 418.072C457.421 418.072 454.218 414.88 454.218 410.942C454.218 407.895 456.137 405.294 458.836 404.273C457.714 399.043 456.742 393.347 455.941 387.276C447.64 390.704 439.852 393.415 432.859 395.327C424.473 397.621 417.089 398.807 411.276 398.633C405.626 398.463 400.604 396.967 398.253 392.909C395.903 388.853 397.114 383.77 399.791 378.81C402.546 373.705 407.269 367.925 413.455 361.835C418.613 356.756 424.863 351.39 431.993 345.94ZM460.16 311.887C459.625 316.921 459.204 322.184 458.911 327.631C461.434 326.095 464.01 324.568 466.633 323.059C469.256 321.55 471.869 320.091 474.467 318.682C469.587 316.212 464.802 313.941 460.16 311.887ZM455.309 309.795C454.562 316.462 454.016 323.524 453.699 330.872C447.473 334.818 441.609 338.82 436.187 342.799C431.248 339.067 426.736 335.38 422.723 331.807C422.953 331.107 423.078 330.36 423.078 329.584C423.078 325.646 419.875 322.455 415.924 322.455C415.073 322.455 414.256 322.602 413.499 322.874C409.281 318.361 406.157 314.241 404.239 310.686C401.745 306.068 401.665 303.147 402.627 301.486C403.588 299.827 406.167 298.436 411.428 298.277C416.526 298.124 423.361 299.173 431.522 301.406C438.656 303.357 446.694 306.181 455.309 309.795ZM466.941 415.419C467.932 414.196 468.526 412.638 468.526 410.942C468.526 407.933 466.657 405.361 464.012 404.314C462.734 398.54 461.64 392.131 460.768 385.226C466.936 382.536 473.346 379.476 479.889 376.077C486.432 379.476 492.842 382.536 499.01 385.226C497.842 394.467 496.278 402.819 494.407 409.95C492.266 418.109 489.76 424.533 487.078 428.856C484.31 433.317 481.812 434.847 479.889 434.847C477.965 434.847 475.467 433.317 472.7 428.856C470.649 425.55 468.701 421.017 466.941 415.419ZM521.194 303.527C515.957 305.231 510.347 307.329 504.469 309.795C505.216 316.462 505.761 323.526 506.079 330.872C512.305 334.82 518.169 338.82 523.591 342.799C531.038 337.172 537.512 331.646 542.774 326.465C548.794 320.538 553.123 315.163 555.539 310.686C558.032 306.068 558.112 303.147 557.151 301.486C556.189 299.827 553.61 298.436 548.35 298.277C544.534 298.162 539.744 298.721 534.153 299.946C533.868 303.624 530.784 306.518 527.021 306.518C524.618 306.518 522.491 305.339 521.194 303.527ZM460.768 306.654C466.936 309.344 473.345 312.404 479.889 315.804C486.432 312.404 492.842 309.344 499.01 306.654C497.843 297.412 496.278 289.062 494.407 281.929C492.266 273.77 489.76 267.346 487.078 263.023C484.31 258.563 481.812 257.032 479.889 257.032C477.965 257.032 475.467 258.563 472.7 263.023C470.018 267.346 467.511 273.77 465.37 281.929C463.499 289.062 461.935 297.413 460.768 306.654ZM479.889 321.49C476.346 323.365 472.763 325.343 469.158 327.417C465.553 329.491 462.043 331.594 458.641 333.714C458.5 337.709 458.427 341.792 458.427 345.94C458.427 350.087 458.5 354.17 458.641 358.165C462.043 360.285 465.553 362.388 469.158 364.462C472.763 366.536 476.345 368.515 479.888 370.391C483.432 368.515 487.015 366.536 490.62 364.462C494.225 362.388 497.734 360.285 501.137 358.165C501.278 354.17 501.351 350.087 501.351 345.94C501.351 341.792 501.278 337.709 501.137 333.714C497.735 331.594 494.225 329.491 490.62 327.417C487.015 325.343 483.432 323.365 479.889 321.49ZM500.866 327.631C498.343 326.095 495.768 324.568 493.145 323.059C490.522 321.55 487.908 320.091 485.31 318.682C490.19 316.212 494.975 313.941 499.618 311.887C500.153 316.921 500.573 322.184 500.866 327.631ZM506.288 336.99C506.362 339.936 506.401 342.922 506.401 345.94C506.401 348.959 506.362 351.943 506.288 354.891C510.875 351.914 515.24 348.918 519.347 345.94C515.24 342.96 510.875 339.967 506.288 336.99ZM523.589 349.082C518.169 353.061 512.304 357.061 506.079 361.009C505.761 368.356 505.216 375.418 504.469 382.086C513.083 385.7 521.122 388.524 528.255 390.475C536.417 392.708 543.252 393.755 548.35 393.602C553.61 393.445 556.189 392.054 557.151 390.393C558.113 388.734 558.032 385.813 555.539 381.193C553.123 376.718 548.794 371.343 542.774 365.414C537.511 360.234 531.037 354.71 523.589 349.082ZM499.617 379.994C500.153 374.96 500.573 369.696 500.866 364.249C498.343 365.788 495.768 367.313 493.145 368.822C490.522 370.33 487.909 371.79 485.311 373.199C490.191 375.669 494.975 377.94 499.617 379.994ZM474.466 373.199C471.869 371.79 469.256 370.33 466.633 368.822C464.01 367.313 461.434 365.788 458.911 364.249C459.204 369.696 459.625 374.96 460.16 379.994C464.802 377.94 469.587 375.669 474.466 373.199ZM453.49 354.891C453.415 351.943 453.377 348.959 453.377 345.94C453.377 342.922 453.415 339.936 453.489 336.99C448.903 339.967 444.538 342.963 440.431 345.941C444.538 348.919 448.903 351.914 453.49 354.891ZM436.188 349.082C441.609 353.061 447.473 357.061 453.699 361.009C454.016 368.356 454.562 375.418 455.309 382.086C446.694 385.7 438.656 388.524 431.522 390.475C423.361 392.708 416.526 393.755 411.428 393.602C406.167 393.445 403.588 392.054 402.627 390.393C401.665 388.734 401.745 385.813 404.239 381.193C406.655 376.718 410.983 371.343 417.004 365.414C422.266 360.234 428.74 354.709 436.188 349.082Z" fill="white"/>
</g>
<g opacity="0.8" filter="url(#filter12_f_746_4300)">
<path d="M493.775 345.52C493.775 353.164 487.557 359.359 479.888 359.359C472.218 359.359 466.001 353.164 466.001 345.52C466.001 337.876 472.218 331.681 479.888 331.681C487.557 331.681 493.775 337.876 493.775 345.52Z" fill="white"/>
<path fill-rule="evenodd" clip-rule="evenodd" d="M431.992 345.94C427.473 342.485 423.308 339.066 419.55 335.73C418.486 336.355 417.246 336.713 415.923 336.713C411.972 336.713 408.769 333.522 408.769 329.584C408.769 328.337 409.09 327.164 409.654 326.145C405.319 321.49 401.95 317.072 399.79 313.071C397.113 308.109 395.902 303.028 398.252 298.97C400.603 294.914 405.625 293.416 411.275 293.248C417.088 293.072 424.472 294.258 432.858 296.552C439.851 298.465 447.639 301.176 455.94 304.605C457.111 295.726 458.649 287.648 460.484 280.657C462.683 272.272 465.345 265.307 468.403 260.378C471.375 255.586 475.187 252 479.888 252C484.588 252 488.4 255.586 491.372 260.378C494.43 265.307 497.092 272.272 499.292 280.657C501.126 287.648 502.665 295.726 503.836 304.605C509.456 302.284 514.841 300.29 519.904 298.652C520.274 295.059 523.319 292.26 527.02 292.26C529.357 292.26 531.432 293.377 532.738 295.104C538.736 293.77 544.074 293.115 548.501 293.248C554.15 293.416 559.173 294.914 561.523 298.97C563.873 303.028 562.663 308.109 559.985 313.071C557.23 318.174 552.508 323.955 546.322 330.046C541.163 335.124 534.913 340.489 527.783 345.94C534.913 351.39 541.163 356.756 546.322 361.835C552.508 367.925 557.23 373.705 559.985 378.81C562.663 383.77 563.873 388.853 561.523 392.909C559.173 396.967 554.15 398.463 548.501 398.633C542.688 398.807 535.304 397.621 526.918 395.327C519.925 393.415 512.136 390.704 503.836 387.276C502.664 396.155 501.126 404.231 499.292 411.222C497.092 419.607 494.43 426.572 491.372 431.501C488.4 436.293 484.588 439.879 479.888 439.879C475.187 439.879 471.375 436.293 468.403 431.501C466.211 427.968 464.223 423.389 462.462 417.99C462.106 418.044 461.742 418.072 461.372 418.072C457.42 418.072 454.218 414.88 454.218 410.942C454.218 407.895 456.136 405.294 458.835 404.273C457.713 399.043 456.741 393.347 455.94 387.276C447.639 390.704 439.851 393.415 432.858 395.327C424.472 397.621 417.088 398.807 411.275 398.633C405.625 398.463 400.603 396.967 398.252 392.909C395.902 388.853 397.113 383.77 399.79 378.81C402.545 373.705 407.268 367.925 413.454 361.835C418.612 356.756 424.862 351.39 431.992 345.94ZM460.159 311.887C459.624 316.921 459.203 322.184 458.91 327.631C461.433 326.095 464.009 324.568 466.632 323.059C469.255 321.55 471.868 320.091 474.466 318.682C469.586 316.212 464.801 313.941 460.159 311.887ZM455.308 309.795C454.561 316.462 454.015 323.524 453.698 330.872C447.472 334.818 441.608 338.82 436.186 342.799C431.247 339.067 426.736 335.38 422.722 331.807C422.952 331.107 423.077 330.36 423.077 329.584C423.077 325.646 419.874 322.455 415.923 322.455C415.072 322.455 414.255 322.602 413.498 322.874C409.28 318.361 406.156 314.241 404.238 310.686C401.745 306.068 401.664 303.147 402.626 301.486C403.587 299.827 406.166 298.436 411.427 298.277C416.525 298.124 423.36 299.173 431.521 301.406C438.655 303.357 446.693 306.181 455.308 309.795ZM466.94 415.419C467.932 414.196 468.525 412.638 468.525 410.942C468.525 407.933 466.656 405.361 464.011 404.314C462.733 398.54 461.639 392.131 460.767 385.226C466.935 382.536 473.345 379.476 479.888 376.077C486.431 379.476 492.841 382.536 499.009 385.226C497.842 394.467 496.277 402.819 494.406 409.95C492.265 418.109 489.759 424.533 487.077 428.856C484.309 433.317 481.811 434.847 479.888 434.847C477.964 434.847 475.466 433.317 472.699 428.856C470.648 425.55 468.7 421.017 466.94 415.419ZM521.193 303.527C515.956 305.231 510.346 307.329 504.468 309.795C505.215 316.462 505.76 323.526 506.078 330.872C512.304 334.82 518.168 338.82 523.59 342.799C531.037 337.172 537.511 331.646 542.773 326.465C548.793 320.538 553.122 315.163 555.538 310.686C558.031 306.068 558.111 303.147 557.15 301.486C556.188 299.827 553.609 298.436 548.349 298.277C544.533 298.162 539.743 298.721 534.152 299.946C533.867 303.624 530.783 306.518 527.02 306.518C524.617 306.518 522.49 305.339 521.193 303.527ZM460.767 306.654C466.935 309.344 473.344 312.404 479.888 315.804C486.431 312.404 492.841 309.344 499.009 306.654C497.842 297.412 496.277 289.062 494.406 281.929C492.265 273.77 489.759 267.346 487.077 263.023C484.309 258.563 481.811 257.032 479.888 257.032C477.964 257.032 475.466 258.563 472.699 263.023C470.017 267.346 467.51 273.77 465.369 281.929C463.498 289.062 461.934 297.413 460.767 306.654ZM479.888 321.49C476.345 323.365 472.762 325.343 469.157 327.417C465.552 329.491 462.042 331.594 458.64 333.714C458.499 337.709 458.426 341.792 458.426 345.94C458.426 350.087 458.499 354.17 458.64 358.165C462.042 360.285 465.552 362.388 469.157 364.462C472.762 366.536 476.344 368.515 479.887 370.391C483.431 368.515 487.014 366.536 490.619 364.462C494.224 362.388 497.733 360.285 501.136 358.165C501.277 354.17 501.35 350.087 501.35 345.94C501.35 341.792 501.277 337.709 501.136 333.714C497.734 331.594 494.224 329.491 490.619 327.417C487.014 325.343 483.431 323.365 479.888 321.49ZM500.865 327.631C498.342 326.095 495.767 324.568 493.144 323.059C490.521 321.55 487.907 320.091 485.309 318.682C490.189 316.212 494.974 313.941 499.617 311.887C500.152 316.921 500.572 322.184 500.865 327.631ZM506.287 336.99C506.361 339.936 506.4 342.922 506.4 345.94C506.4 348.959 506.361 351.943 506.287 354.891C510.874 351.914 515.239 348.918 519.346 345.94C515.239 342.96 510.874 339.967 506.287 336.99ZM523.589 349.082C518.168 353.061 512.303 357.061 506.078 361.009C505.76 368.356 505.215 375.418 504.468 382.086C513.082 385.7 521.121 388.524 528.254 390.475C536.416 392.708 543.251 393.755 548.349 393.602C553.609 393.445 556.188 392.054 557.15 390.393C558.112 388.734 558.031 385.813 555.538 381.193C553.122 376.718 548.793 371.343 542.773 365.414C537.51 360.234 531.036 354.71 523.589 349.082ZM499.616 379.994C500.152 374.96 500.572 369.696 500.865 364.249C498.342 365.788 495.767 367.313 493.144 368.822C490.521 370.33 487.908 371.79 485.31 373.199C490.19 375.669 494.974 377.94 499.616 379.994ZM474.465 373.199C471.868 371.79 469.255 370.33 466.632 368.822C464.009 367.313 461.433 365.788 458.91 364.249C459.203 369.696 459.624 374.96 460.159 379.994C464.801 377.94 469.586 375.669 474.465 373.199ZM453.489 354.891C453.414 351.943 453.376 348.959 453.376 345.94C453.376 342.922 453.414 339.936 453.489 336.99C448.902 339.967 444.537 342.963 440.43 345.941C444.537 348.919 448.902 351.914 453.489 354.891ZM436.187 349.082C441.608 353.061 447.472 357.061 453.698 361.009C454.015 368.356 454.561 375.418 455.308 382.086C446.693 385.7 438.655 388.524 431.521 390.475C423.36 392.708 416.525 393.755 411.427 393.602C406.166 393.445 403.587 392.054 402.626 390.393C401.664 388.734 401.745 385.813 404.238 381.193C406.654 376.718 410.982 371.343 417.003 365.414C422.265 360.234 428.739 354.709 436.187 349.082Z" fill="white"/>
</g>
<path d="M493.775 345.52C493.775 353.164 487.557 359.359 479.888 359.359C472.218 359.359 466.001 353.164 466.001 345.52C466.001 337.876 472.218 331.681 479.888 331.681C487.557 331.681 493.775 337.876 493.775 345.52Z" fill="white"/>
<path fill-rule="evenodd" clip-rule="evenodd" d="M431.992 345.94C427.473 342.485 423.308 339.066 419.55 335.73C418.486 336.355 417.246 336.713 415.923 336.713C411.972 336.713 408.769 333.522 408.769 329.584C408.769 328.337 409.09 327.164 409.654 326.145C405.319 321.49 401.95 317.072 399.79 313.071C397.113 308.109 395.902 303.028 398.252 298.97C400.603 294.914 405.625 293.416 411.275 293.248C417.088 293.072 424.472 294.258 432.858 296.552C439.851 298.465 447.639 301.176 455.94 304.605C457.111 295.726 458.649 287.648 460.484 280.657C462.683 272.272 465.345 265.307 468.403 260.378C471.375 255.586 475.187 252 479.888 252C484.588 252 488.4 255.586 491.372 260.378C494.43 265.307 497.092 272.272 499.292 280.657C501.126 287.648 502.665 295.726 503.836 304.605C509.456 302.284 514.841 300.29 519.904 298.652C520.274 295.059 523.319 292.26 527.02 292.26C529.357 292.26 531.432 293.377 532.738 295.104C538.736 293.77 544.074 293.115 548.501 293.248C554.15 293.416 559.173 294.914 561.523 298.97C563.873 303.028 562.663 308.109 559.985 313.071C557.23 318.174 552.508 323.955 546.322 330.046C541.163 335.124 534.913 340.489 527.783 345.94C534.913 351.39 541.163 356.756 546.322 361.835C552.508 367.925 557.23 373.705 559.985 378.81C562.663 383.77 563.873 388.853 561.523 392.909C559.173 396.967 554.15 398.463 548.501 398.633C542.688 398.807 535.304 397.621 526.918 395.327C519.925 393.415 512.136 390.704 503.836 387.276C502.664 396.155 501.126 404.231 499.292 411.222C497.092 419.607 494.43 426.572 491.372 431.501C488.4 436.293 484.588 439.879 479.888 439.879C475.187 439.879 471.375 436.293 468.403 431.501C466.211 427.968 464.223 423.389 462.462 417.99C462.106 418.044 461.742 418.072 461.372 418.072C457.42 418.072 454.218 414.881 454.218 410.942C454.218 407.895 456.136 405.294 458.835 404.273C457.713 399.043 456.741 393.347 455.94 387.276C447.639 390.704 439.851 393.415 432.858 395.327C424.472 397.621 417.088 398.807 411.275 398.633C405.625 398.463 400.603 396.967 398.252 392.909C395.902 388.853 397.113 383.77 399.79 378.81C402.545 373.705 407.268 367.925 413.454 361.835C418.612 356.756 424.862 351.39 431.992 345.94ZM460.159 311.887C459.624 316.921 459.203 322.184 458.91 327.631C461.433 326.095 464.009 324.568 466.632 323.059C469.255 321.55 471.868 320.091 474.466 318.682C469.586 316.212 464.801 313.941 460.159 311.887ZM455.308 309.795C454.561 316.462 454.015 323.524 453.698 330.872C447.472 334.818 441.608 338.82 436.186 342.799C431.247 339.067 426.736 335.38 422.722 331.807C422.952 331.107 423.077 330.36 423.077 329.584C423.077 325.646 419.874 322.455 415.923 322.455C415.072 322.455 414.255 322.602 413.498 322.874C409.28 318.361 406.156 314.241 404.238 310.686C401.745 306.068 401.664 303.147 402.626 301.486C403.587 299.827 406.166 298.436 411.427 298.277C416.525 298.124 423.36 299.173 431.521 301.406C438.655 303.357 446.693 306.181 455.308 309.795ZM466.94 415.419C467.932 414.196 468.526 412.638 468.526 410.942C468.526 407.933 466.656 405.361 464.011 404.314C462.733 398.54 461.639 392.131 460.767 385.226C466.935 382.536 473.345 379.476 479.888 376.077C486.431 379.476 492.841 382.536 499.009 385.226C497.842 394.467 496.277 402.819 494.406 409.95C492.265 418.109 489.759 424.533 487.077 428.856C484.309 433.317 481.811 434.847 479.888 434.847C477.964 434.847 475.466 433.317 472.699 428.856C470.648 425.55 468.7 421.017 466.94 415.419ZM521.193 303.527C515.956 305.231 510.346 307.329 504.468 309.795C505.215 316.462 505.76 323.526 506.078 330.872C512.304 334.82 518.168 338.82 523.59 342.799C531.037 337.172 537.511 331.646 542.773 326.465C548.793 320.538 553.122 315.163 555.538 310.686C558.031 306.068 558.112 303.147 557.15 301.486C556.188 299.827 553.609 298.436 548.349 298.277C544.533 298.162 539.743 298.721 534.152 299.946C533.867 303.624 530.783 306.518 527.02 306.518C524.617 306.518 522.49 305.339 521.193 303.527ZM460.767 306.654C466.935 309.344 473.344 312.404 479.888 315.804C486.431 312.404 492.841 309.344 499.009 306.654C497.842 297.412 496.278 289.062 494.406 281.929C492.265 273.77 489.759 267.346 487.077 263.023C484.309 258.563 481.811 257.032 479.888 257.032C477.964 257.032 475.466 258.563 472.699 263.023C470.017 267.346 467.51 273.77 465.369 281.929C463.498 289.062 461.934 297.414 460.767 306.654ZM479.888 321.49C476.345 323.365 472.762 325.343 469.157 327.417C465.552 329.491 462.042 331.594 458.64 333.714C458.499 337.709 458.426 341.792 458.426 345.94C458.426 350.087 458.499 354.17 458.64 358.165C462.042 360.285 465.552 362.388 469.157 364.462C472.762 366.536 476.344 368.515 479.887 370.391C483.431 368.515 487.014 366.536 490.619 364.462C494.224 362.388 497.733 360.285 501.136 358.165C501.277 354.17 501.35 350.087 501.35 345.94C501.35 341.792 501.277 337.709 501.136 333.714C497.734 331.594 494.224 329.491 490.619 327.417C487.014 325.343 483.431 323.365 479.888 321.49ZM500.865 327.631C498.342 326.095 495.767 324.568 493.144 323.059C490.521 321.55 487.907 320.091 485.309 318.682C490.189 316.212 494.974 313.941 499.617 311.887C500.152 316.921 500.572 322.184 500.865 327.631ZM506.287 336.99C506.361 339.936 506.4 342.922 506.4 345.94C506.4 348.959 506.361 351.943 506.287 354.891C510.874 351.914 515.239 348.918 519.346 345.94C515.239 342.96 510.874 339.967 506.287 336.99ZM523.589 349.082C518.168 353.061 512.303 357.061 506.078 361.009C505.76 368.356 505.215 375.419 504.468 382.086C513.082 385.7 521.121 388.524 528.254 390.475C536.416 392.708 543.251 393.755 548.349 393.602C553.609 393.445 556.188 392.054 557.15 390.393C558.112 388.734 558.031 385.813 555.538 381.193C553.122 376.718 548.793 371.343 542.773 365.414C537.51 360.234 531.036 354.71 523.589 349.082ZM499.616 379.994C500.152 374.96 500.572 369.696 500.865 364.249C498.342 365.788 495.767 367.313 493.144 368.822C490.521 370.33 487.908 371.79 485.31 373.199C490.19 375.669 494.974 377.94 499.616 379.994ZM474.465 373.199C471.868 371.79 469.255 370.33 466.632 368.822C464.009 367.313 461.433 365.788 458.91 364.249C459.203 369.696 459.624 374.96 460.159 379.994C464.801 377.94 469.586 375.669 474.465 373.199ZM453.489 354.891C453.414 351.943 453.376 348.959 453.376 345.94C453.376 342.922 453.414 339.936 453.489 336.99C448.902 339.967 444.537 342.963 440.43 345.941C444.537 348.919 448.902 351.914 453.489 354.891ZM436.187 349.082C441.608 353.061 447.472 357.061 453.698 361.009C454.015 368.356 454.561 375.419 455.308 382.086C446.693 385.7 438.655 388.524 431.521 390.475C423.36 392.708 416.525 393.755 411.427 393.602C406.166 393.445 403.587 392.054 402.626 390.393C401.664 388.734 401.745 385.813 404.238 381.193C406.654 376.718 410.982 371.343 417.003 365.414C422.265 360.234 428.739 354.709 436.187 349.082Z" fill="white"/>
</g>
<path d="M676.919 455L751.241 458.855C873.542 462.455 955.478 448.36 960.653 417.817C969.195 367.415 764.206 290.795 502.799 246.683C241.392 202.57 22.5551 207.669 14.0139 258.072C8.80219 288.827 79.7872 329.272 197.889 366.208L254.36 382.699L257.419 383.5" stroke="white" stroke-opacity="0.55" stroke-width="1.5"/>
<g filter="url(#filter13_f_746_4300)">
<path d="M232.119 217.5C302.855 221.509 416.93 232.192 502.798 246.683C633.482 268.736 750.065 298.913 832.918 329.877" stroke="url(#paint0_linear_746_4300)" stroke-width="4" stroke-linecap="round"/>
</g>
<g filter="url(#filter14_f_746_4300)">
<path d="M233.618 217.5C308.972 222.288 388.962 227.473 480.542 242.927C619.916 266.447 744.368 297.952 832.917 329.877" stroke="url(#paint1_linear_746_4300)" stroke-width="4" stroke-linecap="round"/>
</g>
<g filter="url(#filter15_f_746_4300)">
<path d="M229.566 216.979C301.004 221.106 412.682 231.475 499.417 246.112C631.421 268.388 749.199 298.766 832.918 329.877" stroke="url(#paint2_linear_746_4300)" stroke-width="4" stroke-linecap="round"/>
</g>
<path d="M234.618 217.5C308.068 221.967 400.495 229.419 489.719 244.476C625.51 267.391 746.717 298.348 832.917 329.877" stroke="url(#paint3_linear_746_4300)" stroke-width="5" stroke-linecap="round"/>
<path d="M685.206 440.051L706.066 441.165C797.866 446.078 863.663 439.539 866.997 419.868C872.497 387.408 705.658 332.188 494.351 296.529C283.044 260.871 107.286 258.279 101.785 290.739C98.4289 310.546 156.58 338.691 252.507 365.832L255.396 366.648" stroke="white" stroke-opacity="0.55" stroke-width="1.5"/>
<defs>
<filter id="filter0_f_746_4300" x="36.1895" y="0.117188" width="506.409" height="463.304" filterUnits="userSpaceOnUse" color-interpolation-filters="sRGB">
<feFlood flood-opacity="0" result="BackgroundImageFix"/>
<feBlend mode="normal" in="SourceGraphic" in2="BackgroundImageFix" result="shape"/>
<feGaussianBlur stdDeviation="62.5" result="effect1_foregroundBlur_746_4300"/>
</filter>
<filter id="filter1_f_746_4300" x="118" y="68" width="370" height="337" filterUnits="userSpaceOnUse" color-interpolation-filters="sRGB">
<feFlood flood-opacity="0" result="BackgroundImageFix"/>
<feBlend mode="normal" in="SourceGraphic" in2="BackgroundImageFix" result="shape"/>
<feGaussianBlur stdDeviation="50" result="effect1_foregroundBlur_746_4300"/>
</filter>
<filter id="filter2_f_746_4300" x="175" y="138" width="271" height="165" filterUnits="userSpaceOnUse" color-interpolation-filters="sRGB">
<feFlood flood-opacity="0" result="BackgroundImageFix"/>
<feBlend mode="normal" in="SourceGraphic" in2="BackgroundImageFix" result="shape"/>
<feGaussianBlur stdDeviation="27.5" result="effect1_foregroundBlur_746_4300"/>
</filter>
<filter id="filter3_f_746_4300" x="298.298" y="1.05566" width="571.632" height="571.632" filterUnits="userSpaceOnUse" color-interpolation-filters="sRGB">
<feFlood flood-opacity="0" result="BackgroundImageFix"/>
<feBlend mode="normal" in="SourceGraphic" in2="BackgroundImageFix" result="shape"/>
<feGaussianBlur stdDeviation="55" result="effect1_foregroundBlur_746_4300"/>
</filter>
<filter id="filter4_f_746_4300" x="62.8477" y="-33.2852" width="692.914" height="664.041" filterUnits="userSpaceOnUse" color-interpolation-filters="sRGB">
<feFlood flood-opacity="0" result="BackgroundImageFix"/>
<feBlend mode="normal" in="SourceGraphic" in2="BackgroundImageFix" result="shape"/>
<feGaussianBlur stdDeviation="50" result="effect1_foregroundBlur_746_4300"/>
</filter>
<filter id="filter5_f_746_4300" x="5.85156" y="-111.136" width="612.401" height="612.401" filterUnits="userSpaceOnUse" color-interpolation-filters="sRGB">
<feFlood flood-opacity="0" result="BackgroundImageFix"/>
<feBlend mode="normal" in="SourceGraphic" in2="BackgroundImageFix" result="shape"/>
<feGaussianBlur stdDeviation="50" result="effect1_foregroundBlur_746_4300"/>
</filter>
<filter id="filter6_f_746_4300" x="105.611" y="-1.39648" width="460.97" height="459.987" filterUnits="userSpaceOnUse" color-interpolation-filters="sRGB">
<feFlood flood-opacity="0" result="BackgroundImageFix"/>
<feBlend mode="normal" in="SourceGraphic" in2="BackgroundImageFix" result="shape"/>
<feGaussianBlur stdDeviation="60" result="effect1_foregroundBlur_746_4300"/>
</filter>
<filter id="filter7_f_746_4300" x="-125.958" y="-320.433" width="1421.64" height="1320.3" filterUnits="userSpaceOnUse" color-interpolation-filters="sRGB">
<feFlood flood-opacity="0" result="BackgroundImageFix"/>
<feBlend mode="normal" in="SourceGraphic" in2="BackgroundImageFix" result="shape"/>
<feGaussianBlur stdDeviation="50" result="effect1_foregroundBlur_746_4300"/>
</filter>
<filter id="filter8_f_746_4300" x="-40.5947" y="-232.978" width="959.713" height="912.79" filterUnits="userSpaceOnUse" color-interpolation-filters="sRGB">
<feFlood flood-opacity="0" result="BackgroundImageFix"/>
<feBlend mode="normal" in="SourceGraphic" in2="BackgroundImageFix" result="shape"/>
<feGaussianBlur stdDeviation="27.5" result="effect1_foregroundBlur_746_4300"/>
</filter>
<filter id="filter9_f_746_4300" x="232.578" y="87.5781" width="494.619" height="516.723" filterUnits="userSpaceOnUse" color-interpolation-filters="sRGB">
<feFlood flood-opacity="0" result="BackgroundImageFix"/>
<feBlend mode="normal" in="SourceGraphic" in2="BackgroundImageFix" result="shape"/>
<feGaussianBlur stdDeviation="82.2109" result="effect1_foregroundBlur_746_4300"/>
</filter>
<filter id="filter10_f_746_4300" x="338.657" y="193.657" width="282.462" height="304.565" filterUnits="userSpaceOnUse" color-interpolation-filters="sRGB">
<feFlood flood-opacity="0" result="BackgroundImageFix"/>
<feBlend mode="normal" in="SourceGraphic" in2="BackgroundImageFix" result="shape"/>
<feGaussianBlur stdDeviation="29.1716" result="effect1_foregroundBlur_746_4300"/>
</filter>
<filter id="filter11_f_746_4300" x="370.481" y="225.48" width="218.815" height="240.918" filterUnits="userSpaceOnUse" color-interpolation-filters="sRGB">
<feFlood flood-opacity="0" result="BackgroundImageFix"/>
<feBlend mode="normal" in="SourceGraphic" in2="BackgroundImageFix" result="shape"/>
<feGaussianBlur stdDeviation="13.2598" result="effect1_foregroundBlur_746_4300"/>
</filter>
<filter id="filter12_f_746_4300" x="388.514" y="243.514" width="182.748" height="204.851" filterUnits="userSpaceOnUse" color-interpolation-filters="sRGB">
<feFlood flood-opacity="0" result="BackgroundImageFix"/>
<feBlend mode="normal" in="SourceGraphic" in2="BackgroundImageFix" result="shape"/>
<feGaussianBlur stdDeviation="4.24314" result="effect1_foregroundBlur_746_4300"/>
</filter>
<filter id="filter13_f_746_4300" x="225.118" y="210.5" width="614.801" height="126.377" filterUnits="userSpaceOnUse" color-interpolation-filters="sRGB">
<feFlood flood-opacity="0" result="BackgroundImageFix"/>
<feBlend mode="normal" in="SourceGraphic" in2="BackgroundImageFix" result="shape"/>
<feGaussianBlur stdDeviation="2.5" result="effect1_foregroundBlur_746_4300"/>
</filter>
<filter id="filter14_f_746_4300" x="216.618" y="200.5" width="633.3" height="146.377" filterUnits="userSpaceOnUse" color-interpolation-filters="sRGB">
<feFlood flood-opacity="0" result="BackgroundImageFix"/>
<feBlend mode="normal" in="SourceGraphic" in2="BackgroundImageFix" result="shape"/>
<feGaussianBlur stdDeviation="7.5" result="effect1_foregroundBlur_746_4300"/>
</filter>
<filter id="filter15_f_746_4300" x="202.565" y="189.979" width="657.353" height="166.898" filterUnits="userSpaceOnUse" color-interpolation-filters="sRGB">
<feFlood flood-opacity="0" result="BackgroundImageFix"/>
<feBlend mode="normal" in="SourceGraphic" in2="BackgroundImageFix" result="shape"/>
<feGaussianBlur stdDeviation="12.5" result="effect1_foregroundBlur_746_4300"/>
</filter>
<linearGradient id="paint0_linear_746_4300" x1="262.918" y1="214.499" x2="697.971" y2="291.199" gradientUnits="userSpaceOnUse">
<stop stop-color="white"/>
<stop offset="1" stop-color="white" stop-opacity="0"/>
</linearGradient>
<linearGradient id="paint1_linear_746_4300" x1="224.8" y1="208.068" x2="688.748" y2="290.074" gradientUnits="userSpaceOnUse">
<stop stop-color="white"/>
<stop offset="1" stop-color="white" stop-opacity="0"/>
</linearGradient>
<linearGradient id="paint2_linear_746_4300" x1="257.128" y1="213.523" x2="696.57" y2="291.027" gradientUnits="userSpaceOnUse">
<stop stop-color="white"/>
<stop offset="1" stop-color="white" stop-opacity="0"/>
</linearGradient>
<linearGradient id="paint3_linear_746_4300" x1="240.519" y1="210.72" x2="692.552" y2="290.535" gradientUnits="userSpaceOnUse">
<stop stop-color="white"/>
<stop offset="1" stop-color="white" stop-opacity="0"/>
</linearGradient>
<clipPath id="clip0_746_4300">
<rect width="450.749" height="450.749" rx="225.374" transform="matrix(-0.984567 -0.175008 -0.175008 0.984567 740.918 163.885)" fill="white"/>
</clipPath>
</defs>
</svg>
